<?xml version="1.0" encoding="UTF-8"?>
<svg version="1.1" xmlns="http://www.w3.org/2000/svg" width="400" height="400">
<path d="M0 0 C132 0 264 0 400 0 C400 132 400 264 400 400 C268 400 136 400 0 400 C0 268 0 136 0 0 Z " fill="#1D2B31" transform="translate(0,0)"/>
<path d="M0 0 C10.9475454 5.4737727 16.44355028 13.07872048 21.2578125 24.12890625 C24.2839129 33.20720744 22.05061831 42.63912731 18.2578125 51.12890625 C13.01055714 60.97318072 5.58653167 67.06996142 -4.7421875 71.12890625 C-9.83519656 72.59056748 -15.0479463 73.57078234 -20.2454834 74.58102417 C-23.66558526 75.24592321 -27.07912757 75.94199832 -30.49334717 76.6363678 C-32.20629159 76.98453721 -33.91954798 77.3311754 -35.63311768 77.67625427 C-42.28265729 79.01860394 -48.89217633 80.49814117 -55.4921875 82.06640625 C-66.97779468 84.77656761 -78.51214972 87.23823751 -90.0546875 89.69140625 C-101.56197652 92.13758678 -113.05456752 94.59635905 -124.48217773 97.39575195 C-131.16674338 99.02303912 -137.88584847 100.45882865 -144.6171875 101.87890625 C-157.12361323 104.51874349 -169.57183045 107.37975046 -182.01980591 110.28039551 C-193.32370725 112.91217209 -204.6343591 115.44581225 -216.01660156 117.72094727 C-216.89155273 117.89682373 -217.76650391 118.0727002 -218.66796875 118.25390625 C-219.41473877 118.40085937 -220.16150879 118.5478125 -220.9309082 118.69921875 C-222.82729833 119.07617709 -222.82729833 119.07617709 -224.7421875 120.12890625 C-229.84781106 120.78227672 -234.31722855 120.91496267 -238.6796875 117.94140625 C-242.82408228 114.43235501 -244.86992271 111.28631898 -245.3671875 105.81640625 C-245.08569512 100.95484243 -243.33079646 98.65054025 -240.08886719 95.14770508 C-235.5144203 91.21240532 -230.03755698 89.02307821 -224.5546875 86.62890625 C-223.2291262 86.03206843 -221.9043567 85.43346939 -220.58032227 84.83325195 C-217.03879099 83.23429024 -213.48653859 81.66078483 -209.93054199 80.09429932 C-206.30361746 78.49428076 -202.68356838 76.87884115 -199.0625 75.265625 C-194.59046904 73.27507353 -190.11706488 71.28773762 -185.63964844 69.30932617 C-174.6495775 64.44963405 -163.71584128 59.47557203 -152.8046875 54.44140625 C-140.93447814 48.96616589 -129.04495326 43.54379539 -117.10791016 38.21533203 C-107.3514069 33.85814965 -97.61667117 29.45391132 -87.88464355 25.0423584 C-73.04511642 18.31672227 -58.19065485 11.62617925 -43.3046875 5.00390625 C-42.52825897 4.65798431 -41.75183044 4.31206238 -40.95187378 3.95565796 C-38.77982183 2.98836679 -36.60689119 2.02308276 -34.43359375 1.05859375 C-33.79503448 0.77412888 -33.15647522 0.489664 -32.49856567 0.19657898 C-22.10732675 -4.40338482 -10.50951755 -4.50183811 0 0 Z " fill="#0AAAEA" transform="translate(302.7421875,74.87109375)"/>
<path d="M0 0 C6.18427726 5.84556243 9.22187497 12.67187418 9.5625 21.1875 C9.47843348 29.56613024 6.68987675 36.03003907 1.296875 42.4140625 C-6.13091543 49.50971596 -13.93348713 51.5633263 -23.98022461 51.43041992 C-30.85696371 51.11186478 -37.67225349 50.31132801 -44.50753784 49.51394653 C-49.55512064 48.92649978 -54.60570174 48.36597524 -59.65625 47.8046875 C-60.7646373 47.68120438 -61.8730246 47.55772125 -63.01499939 47.43049622 C-76.6038848 45.92917089 -90.20969753 44.59900927 -103.81500244 43.25671387 C-126.49232287 41.01848968 -149.16692308 38.75239708 -171.82473755 36.32369995 C-174.21483135 36.0682018 -176.60519042 35.81517186 -178.99581909 35.56472778 C-182.27016769 35.22091378 -185.54336796 34.86776194 -188.81640625 34.51171875 C-189.77128937 34.41303497 -190.72617249 34.3143512 -191.70999146 34.212677 C-197.75932374 33.53952626 -202.10119275 32.90555343 -206.6875 28.625 C-208.59306704 26.15861734 -209.27269328 24.30116991 -209.4375 21.1875 C-208.8075406 16.77778419 -208.21359155 15.16056699 -204.875 12.25 C-199.33549511 10.3495436 -193.7576008 9.53009376 -187.96484375 8.7734375 C-187.00609848 8.64576996 -186.04735321 8.51810242 -185.05955505 8.38656616 C-174.95713553 7.07583232 -164.82670844 6.10326311 -154.68331909 5.1730957 C-148.98834155 4.65006953 -143.29494397 4.11039729 -137.6015625 3.5703125 C-136.44565109 3.46080261 -135.28973969 3.35129272 -134.09880066 3.23846436 C-122.82706465 2.16336672 -111.5695244 0.96814899 -100.3125 -0.25 C-84.38871609 -1.96603458 -68.46092952 -3.63616184 -52.52371216 -5.22314453 C-50.28529925 -5.44664615 -48.04707254 -5.67202188 -45.80905151 -5.89941406 C-42.69092102 -6.21569098 -39.57215787 -6.52479728 -36.453125 -6.83203125 C-35.5436763 -6.92551346 -34.6342276 -7.01899567 -33.69721985 -7.11531067 C-20.75571264 -8.3667051 -10.45575764 -8.67896223 0 0 Z " fill="#F9ED01" transform="translate(312.875,200.75)"/>
<path d="M0 0 C5.53607057 1.69274975 11.09603764 3.09469091 16.73803711 4.38647461 C26.39103108 6.61429532 35.91584526 9.2251045 45.44897461 11.91650391 C52.15491378 13.79355246 58.86403739 15.55523204 65.64038086 17.15600586 C66.36010574 17.32789932 67.07983063 17.49979279 67.82136536 17.67689514 C71.30713653 18.50904425 74.7951478 19.32408692 78.29199219 20.10839844 C87.07254369 22.19304608 93.90188312 24.75474232 100.17944336 31.39038086 C104.30964798 38.15638558 105.31400931 44.22863909 103.98803711 52.07397461 C101.53967956 58.65662012 96.17762603 63.50242139 90.28564453 67.11889648 C84.34342363 69.5889813 76.86023503 69.08934322 70.89135742 66.97924805 C67.8626382 65.43577596 64.99591259 63.74994392 62.11303711 61.94897461 C61.04859375 61.31878418 59.98415039 60.68859375 58.88745117 60.03930664 C56.67107641 58.72470181 54.46207292 57.39759232 52.26049805 56.05834961 C48.11976946 53.54746913 43.93400236 51.11914759 39.74389648 48.69189453 C36.73906305 46.94956949 33.74180237 45.19479962 30.74584961 43.43725586 C25.38865011 40.30074524 20.00643414 37.2102199 14.61303711 34.13647461 C13.78328369 33.66185791 12.95353027 33.18724121 12.09863281 32.69824219 C7.68722027 30.17605681 3.26880739 27.66739162 -1.16217041 25.17970276 C-3.55082733 23.83603766 -5.93460791 22.4838669 -8.31768799 21.13034058 C-10.03573447 20.15838456 -11.75987467 19.19722501 -13.48413086 18.23632812 C-14.53616699 17.63747803 -15.58820313 17.03862793 -16.67211914 16.42163086 C-17.60677002 15.89577393 -18.5414209 15.36991699 -19.50439453 14.828125 C-23.5577316 11.99264385 -25.76195995 9.47399107 -26.63696289 4.57397461 C-25.97202536 0.85032446 -25.08630795 -0.91516579 -21.94555664 -3.10571289 C-15.09217513 -6.01320808 -6.69750074 -2.05853919 0 0 Z " fill="#E70087" transform="translate(157.011962890625,263.926025390625)"/>
<path d="M0 0 C2.92837797 2.45027545 4.56680768 4.19920878 5.47265625 7.96484375 C5.82461913 12.6667068 4.67581781 14.97574936 1.53356934 18.63430786 C-1.10558506 20.98455857 -3.81749458 21.18342142 -7.25390625 21.65234375 C-7.98372208 21.75949203 -8.7135379 21.86664032 -9.46546936 21.97703552 C-11.08909632 22.21216403 -12.71447394 22.43541966 -14.34112549 22.64862061 C-17.15886152 23.0209941 -19.9693018 23.43110482 -22.78076172 23.84814453 C-28.0690177 24.62723991 -33.36130291 25.37328593 -38.65600586 26.10717773 C-41.92947658 26.56138671 -45.20206854 27.0215662 -48.47460938 27.48242188 C-58.70847 28.9145431 -68.9388774 30.26777391 -79.21417236 31.36650085 C-84.23177868 31.90413291 -89.20728977 32.56735078 -94.1875 33.375 C-107.39726113 35.42843404 -120.6650353 37.05199928 -133.92572021 38.73638916 C-139.49440275 39.44408785 -145.06263868 40.15523838 -150.63046265 40.86965942 C-152.55660481 41.11624405 -154.48300989 41.36077224 -156.40942383 41.60522461 C-163.37605477 42.49790181 -170.31772674 43.4845469 -177.25268555 44.59790039 C-180.63768915 45.0933328 -183.59588462 45.37823504 -187 45 C-189.14915785 41.77626323 -189.38286803 40.73296326 -189 37 C-186.24168314 34.24168314 -183.1611734 33.90656338 -179.46875 33.08984375 C-178.71098267 32.91726547 -177.95321533 32.74468719 -177.17248535 32.56687927 C-169.73132496 30.89432531 -162.25361603 29.41711873 -154.76159668 27.99261475 C-151.6271334 27.39649657 -148.4942684 26.79216224 -145.36126709 26.18841553 C-143.78569681 25.88485638 -142.21005465 25.58167005 -140.63433838 25.27886963 C-124.94792256 22.26332556 -109.29068872 19.1027373 -93.66503906 15.78662109 C-87.55657995 14.4991929 -81.43129929 13.32160152 -75.29391479 12.18182373 C-68.26996386 10.87321533 -61.26478598 9.47564738 -54.26043701 8.06640625 C-51.99911335 7.61227022 -49.73717847 7.16128598 -47.47509766 6.7109375 C-40.47024185 5.31418045 -33.47204653 3.89799007 -26.48828125 2.3984375 C-25.36091553 2.16044434 -24.2335498 1.92245117 -23.07202148 1.67724609 C-21.01308831 1.24108873 -18.95636093 0.79431539 -16.90258789 0.33447266 C-11.20368193 -0.86135352 -5.69932903 -1.63017193 0 0 Z " fill="#0A9447" transform="translate(303,158)"/>
<path d="M0 0 C5.55076628 0.12834142 11.02224391 0.76454385 16.52734375 1.453125 C17.92823242 1.61748047 17.92823242 1.61748047 19.35742188 1.78515625 C25.77269878 2.56800956 32.15150602 3.5159399 38.53543091 4.51913452 C50.06825419 6.33061004 61.61239112 7.97976879 73.1875 9.4921875 C73.91954084 9.58795578 74.65158169 9.68372406 75.40580559 9.78239441 C81.42493232 10.56894569 87.44487223 11.34919556 93.46514893 12.12689209 C98.01057552 12.71408887 102.55556299 13.30447625 107.09997368 13.89948654 C109.18938925 14.17178844 111.27936423 14.43944732 113.36940002 14.7069397 C133.25422321 17.30971246 133.25422321 17.30971246 138.08984375 23.203125 C138.41984375 23.533125 138.74984375 23.863125 139.08984375 24.203125 C139.47427402 29.20071852 139.19609977 32.20936726 136.08984375 36.203125 C134.23605735 38.27080983 132.96574005 39.1221465 130.18043518 39.37965393 C124.81836773 39.3925831 120.00013085 38.7674182 114.8046875 37.48046875 C114.03868225 37.29970795 113.272677 37.11894714 112.48345947 36.93270874 C110.84555466 36.54514393 109.20869781 36.15312709 107.57284546 35.75698853 C104.09882334 34.91579462 100.6198007 34.09628027 97.14082336 33.27586365 C95.36460637 32.85695521 93.58863604 32.43699957 91.81291199 32.01600647 C83.65481695 30.0858084 75.47172678 28.28419597 67.27734375 26.515625 C54.65555034 23.77958828 42.05807698 20.95527667 29.48632812 17.99755859 C26.38544774 17.27226642 23.28210676 16.55843811 20.17781067 15.84793091 C17.48872908 15.23000402 14.8019364 14.60251557 12.11557007 13.97290039 C10.192378 13.52494979 8.26673686 13.08755564 6.34106445 12.65039062 C5.17663818 12.37517578 4.01221191 12.09996094 2.8125 11.81640625 C1.77875244 11.57704346 0.74500488 11.33768066 -0.32006836 11.09106445 C-3.000997 10.17198278 -4.22938952 9.458863 -5.91015625 7.203125 C-6.22265625 4.640625 -6.22265625 4.640625 -5.91015625 2.203125 C-3.91015625 0.203125 -3.91015625 0.203125 0 0 Z " fill="#ED7E1E" transform="translate(144.91015625,243.796875)"/>
</svg>
