<?xml version="1.0" encoding="UTF-8"?>
<svg xmlns="http://www.w3.org/2000/svg" xmlns:xlink="http://www.w3.org/1999/xlink" width="24px" height="px" viewBox="0 0 24 22" version="1.1">
<g id="surface1">
<path style=" stroke:none;fill-rule:nonzero;fill:rgb(17.647059%,19.607843%,46.666667%);fill-opacity:1;" d="M 6.304688 17.460938 L 6.53125 17.460938 L 6.53125 21.996094 L 5.679688 21.996094 L 5.679688 18.011719 C 5.679688 17.882812 5.953125 17.460938 6.304688 17.460938 Z M 6.304688 17.460938 "/>
<path style=" stroke:none;fill-rule:evenodd;fill:rgb(17.647059%,19.607843%,46.666667%);fill-opacity:1;" d="M 12.289062 20.261719 C 12.289062 21.398438 11.777344 21.980469 10.722656 21.996094 C 9.664062 21.996094 9.136719 21.476562 9.136719 20.457031 L 9.136719 17.882812 C 9.25 17.6875 9.472656 17.460938 9.890625 17.460938 L 9.984375 17.460938 L 9.984375 19 C 10.207031 18.644531 10.527344 18.464844 10.945312 18.464844 C 11.839844 18.5 12.289062 19.082031 12.289062 20.261719 Z M 11.425781 20.214844 C 11.394531 19.550781 11.167969 19.226562 10.707031 19.226562 C 10.242188 19.226562 10.015625 19.550781 9.984375 20.214844 C 9.96875 20.894531 10.207031 21.25 10.6875 21.25 C 11.167969 21.25 11.425781 20.910156 11.425781 20.214844 Z M 11.425781 20.214844 "/>
<path style=" stroke:none;fill-rule:nonzero;fill:rgb(17.647059%,19.607843%,46.666667%);fill-opacity:1;" d="M 12.785156 20.214844 C 12.816406 19.113281 13.34375 18.5 14.480469 18.5 L 14.738281 18.5 L 14.738281 19.386719 L 14.335938 19.386719 C 13.855469 19.386719 13.648438 19.695312 13.648438 20.199219 L 13.648438 21.980469 L 12.785156 21.980469 Z M 12.785156 20.214844 "/>
<path style=" stroke:none;fill-rule:evenodd;fill:rgb(17.647059%,19.607843%,46.666667%);fill-opacity:1;" d="M 16.082031 21.105469 C 16.222656 21.234375 16.414062 21.300781 16.671875 21.300781 C 16.847656 21.300781 17.007812 21.25 17.136719 21.15625 C 17.265625 21.058594 17.34375 20.960938 17.375 20.863281 L 18.175781 20.863281 C 18.046875 21.269531 17.855469 21.542969 17.582031 21.722656 C 17.3125 21.898438 17.007812 21.980469 16.625 21.980469 C 16.367188 21.980469 16.128906 21.933594 15.921875 21.851562 C 15.714844 21.769531 15.535156 21.640625 15.390625 21.492188 C 15.25 21.332031 15.136719 21.15625 15.054688 20.945312 C 14.976562 20.734375 14.945312 20.492188 14.945312 20.230469 C 14.945312 19.988281 14.992188 19.746094 15.074219 19.535156 C 15.152344 19.324219 15.265625 19.128906 15.40625 18.984375 C 15.550781 18.820312 15.726562 18.707031 15.9375 18.609375 C 16.144531 18.515625 16.367188 18.480469 16.625 18.480469 C 16.898438 18.480469 17.152344 18.53125 17.359375 18.644531 C 17.566406 18.757812 17.742188 18.902344 17.871094 19.082031 C 18 19.257812 18.09375 19.46875 18.160156 19.714844 C 18.222656 19.941406 18.238281 20.199219 18.222656 20.457031 L 15.839844 20.457031 C 15.871094 20.765625 15.953125 20.976562 16.082031 21.105469 Z M 17.105469 19.355469 C 16.992188 19.242188 16.832031 19.179688 16.609375 19.179688 C 16.464844 19.179688 16.335938 19.210938 16.238281 19.257812 C 16.144531 19.308594 16.066406 19.371094 16.015625 19.4375 C 15.953125 19.519531 15.921875 19.582031 15.890625 19.664062 C 15.855469 19.746094 15.855469 19.828125 15.839844 19.890625 L 17.3125 19.890625 C 17.296875 19.648438 17.214844 19.46875 17.105469 19.355469 Z M 17.105469 19.355469 "/>
<path style=" stroke:none;fill-rule:nonzero;fill:rgb(17.647059%,19.607843%,46.666667%);fill-opacity:1;" d="M 7.441406 17.460938 L 8.289062 17.460938 L 8.289062 18.238281 L 7.441406 18.238281 Z M 7.441406 17.460938 "/>
<path style=" stroke:none;fill-rule:nonzero;fill:rgb(17.647059%,19.607843%,46.666667%);fill-opacity:1;" d="M 7.441406 18.628906 L 8.289062 18.628906 L 8.289062 21.980469 L 7.441406 21.980469 Z M 7.441406 18.628906 "/>
<path style=" stroke:none;fill-rule:evenodd;fill:rgb(17.647059%,19.607843%,46.666667%);fill-opacity:1;" d="M 24 14.886719 C 24 15.355469 23.839844 15.777344 23.582031 16.117188 C 23.328125 16.472656 22.878906 16.636719 22.335938 16.636719 C 21.773438 16.636719 21.34375 16.457031 21.085938 16.117188 C 20.816406 15.792969 20.671875 15.371094 20.671875 14.886719 C 20.671875 14.414062 20.832031 13.996094 21.085938 13.65625 C 21.34375 13.285156 21.792969 13.121094 22.335938 13.121094 C 22.894531 13.121094 23.328125 13.316406 23.582031 13.65625 C 23.871094 14.011719 24.015625 14.433594 24 14.886719 Z M 23.101562 14.902344 C 23.101562 14.59375 23.054688 14.320312 22.910156 14.15625 C 22.765625 13.996094 22.574219 13.898438 22.335938 13.898438 C 22.09375 13.898438 21.902344 13.996094 21.757812 14.15625 C 21.632812 14.320312 21.566406 14.5625 21.566406 14.902344 C 21.566406 15.226562 21.617188 15.503906 21.757812 15.664062 C 21.902344 15.824219 22.09375 15.921875 22.335938 15.921875 C 22.574219 15.921875 22.765625 15.824219 22.910156 15.664062 C 23.054688 15.46875 23.101562 15.210938 23.101562 14.902344 Z M 23.101562 14.902344 "/>
<path style=" stroke:none;fill-rule:evenodd;fill:rgb(17.647059%,19.607843%,46.666667%);fill-opacity:1;" d="M 20.367188 15.277344 C 20.367188 15.277344 20.398438 16.636719 18.816406 16.636719 C 18.367188 16.636719 17.855469 16.503906 17.601562 16.199219 C 17.328125 15.921875 17.214844 15.503906 17.214844 15.015625 C 17.214844 14.433594 17.34375 13.964844 17.601562 13.65625 C 17.871094 13.332031 18.207031 13.171875 18.640625 13.171875 C 18.832031 13.171875 19.023438 13.1875 19.167969 13.285156 C 19.34375 13.394531 19.457031 13.507812 19.550781 13.65625 L 19.550781 12.730469 C 19.550781 12.035156 20.414062 12.132812 20.414062 12.132812 Z M 19.632812 14.96875 C 19.632812 14.546875 19.519531 14.222656 19.328125 14.0625 C 19.199219 13.964844 19.054688 13.914062 18.894531 13.914062 C 18.640625 13.914062 18.464844 14.011719 18.351562 14.207031 C 18.242188 14.386719 18.191406 14.613281 18.191406 14.902344 C 18.191406 15.226562 18.242188 15.472656 18.351562 15.664062 C 18.449219 15.828125 18.640625 15.921875 18.878906 15.921875 C 19.121094 15.921875 19.3125 15.828125 19.425781 15.664062 C 19.554688 15.503906 19.585938 15.257812 19.632812 14.96875 Z M 19.632812 14.96875 "/>
<path style=" stroke:none;fill-rule:evenodd;fill:rgb(17.647059%,19.607843%,46.666667%);fill-opacity:1;" d="M 16.992188 14.15625 L 16.992188 15.390625 C 16.992188 15.597656 17.007812 16.667969 15.136719 16.601562 C 14.832031 16.585938 14.59375 16.503906 14.398438 16.34375 C 14.207031 16.164062 14.113281 15.921875 14.113281 15.613281 C 14.113281 15.226562 14.273438 14.902344 14.574219 14.742188 C 14.753906 14.644531 14.992188 14.578125 15.328125 14.53125 L 15.617188 14.515625 C 15.757812 14.496094 15.890625 14.464844 15.953125 14.449219 C 16.082031 14.402344 16.144531 14.320312 16.144531 14.207031 C 16.144531 14.058594 16.097656 13.960938 16 13.914062 C 15.890625 13.867188 15.777344 13.851562 15.582031 13.851562 C 15.390625 13.851562 15.246094 13.898438 15.152344 13.996094 C 15.105469 14.078125 15.054688 14.171875 15.039062 14.285156 L 14.222656 14.285156 C 14.257812 14.011719 14.320312 13.785156 14.464844 13.589844 C 14.6875 13.300781 15.089844 13.152344 15.632812 13.152344 C 16 13.152344 16.304688 13.21875 16.589844 13.363281 C 16.878906 13.507812 17.007812 13.800781 16.992188 14.15625 Z M 16.175781 14.96875 C 16.128906 14.984375 16.066406 15.015625 16.015625 15.03125 C 15.9375 15.03125 15.871094 15.0625 15.777344 15.082031 L 15.582031 15.128906 C 15.40625 15.144531 15.265625 15.195312 15.199219 15.242188 C 15.074219 15.324219 15.007812 15.453125 15.007812 15.613281 C 15.007812 15.761719 15.039062 15.839844 15.121094 15.921875 C 15.199219 16.003906 15.296875 16.019531 15.40625 16.019531 C 15.582031 16.019531 15.757812 15.957031 15.921875 15.855469 C 16.066406 15.746094 16.160156 15.550781 16.160156 15.257812 Z M 16.175781 14.96875 "/>
<path style=" stroke:none;fill-rule:nonzero;fill:rgb(17.647059%,19.607843%,46.666667%);fill-opacity:1;" d="M 11.695312 14.335938 C 11.617188 14.464844 11.601562 14.691406 11.601562 14.933594 C 11.601562 15.175781 11.648438 15.371094 11.695312 15.519531 C 11.777344 15.792969 12 15.9375 12.289062 15.9375 C 12.511719 15.9375 12.65625 15.875 12.753906 15.777344 C 12.847656 15.664062 12.898438 15.519531 12.914062 15.355469 L 13.824219 15.355469 C 13.792969 15.632812 13.695312 15.875 13.539062 16.117188 C 13.25 16.472656 12.832031 16.667969 12.289062 16.667969 C 11.746094 16.667969 11.328125 16.503906 11.074219 16.199219 C 10.800781 15.890625 10.6875 15.503906 10.6875 14.984375 C 10.6875 14.433594 10.832031 13.996094 11.121094 13.671875 C 11.40625 13.347656 11.808594 13.203125 12.320312 13.203125 C 12.753906 13.203125 13.121094 13.265625 13.375 13.460938 C 13.648438 13.621094 13.808594 13.964844 13.855469 14.433594 L 12.945312 14.433594 C 12.945312 14.304688 12.898438 14.191406 12.832031 14.09375 C 12.722656 13.964844 12.5625 13.898438 12.355469 13.898438 C 12.03125 13.898438 11.839844 14.042969 11.695312 14.335938 Z M 11.695312 14.335938 "/>
<path style=" stroke:none;fill-rule:nonzero;fill:rgb(17.647059%,19.607843%,46.666667%);fill-opacity:1;" d="M 10.496094 13.203125 C 10.496094 13.203125 10.511719 13.203125 10.5625 13.203125 L 10.5625 14.078125 C 10.511719 14.0625 10.464844 14.0625 10.417969 14.0625 C 10.367188 14.0625 10.335938 14.0625 10.320312 14.0625 C 9.96875 14.0625 9.746094 14.191406 9.632812 14.398438 C 9.554688 14.515625 9.539062 14.726562 9.539062 14.984375 L 9.539062 16.585938 L 8.671875 16.585938 L 8.671875 14.871094 C 8.671875 14.871094 8.546875 13.171875 10.449219 13.171875 C 10.480469 13.171875 10.480469 13.171875 10.496094 13.203125 Z M 10.496094 13.203125 "/>
<path style=" stroke:none;fill-rule:evenodd;fill:rgb(17.647059%,19.607843%,46.666667%);fill-opacity:1;" d="M 8.257812 15.648438 C 8.226562 15.824219 8.128906 16.003906 7.96875 16.167969 C 7.699219 16.488281 7.28125 16.652344 6.753906 16.652344 C 6.320312 16.652344 5.9375 16.488281 5.601562 16.230469 C 5.25 15.972656 5.089844 15.519531 5.089844 14.917969 C 5.089844 14.351562 5.265625 13.914062 5.554688 13.605469 C 5.84375 13.285156 6.226562 13.136719 6.707031 13.136719 C 6.996094 13.136719 7.265625 13.1875 7.472656 13.285156 C 7.679688 13.378906 7.871094 13.558594 8.019531 13.769531 C 8.160156 13.964844 8.226562 14.191406 8.273438 14.449219 C 8.289062 14.578125 8.289062 14.804688 8.289062 15.097656 L 5.921875 15.097656 C 5.921875 15.40625 6.050781 15.664062 6.257812 15.777344 C 6.386719 15.875 6.53125 15.890625 6.722656 15.890625 C 6.914062 15.890625 7.089844 15.875 7.203125 15.777344 C 7.25 15.761719 7.296875 15.710938 7.3125 15.664062 Z M 5.921875 14.546875 L 7.394531 14.546875 C 7.394531 14.320312 7.328125 14.140625 7.1875 14.027344 C 7.042969 13.914062 6.863281 13.867188 6.671875 13.867188 C 6.449219 13.867188 6.273438 13.949219 6.160156 14.0625 C 6.035156 14.191406 5.96875 14.351562 5.921875 14.546875 Z M 5.921875 14.546875 "/>
<path style=" stroke:none;fill-rule:nonzero;fill:rgb(17.647059%,19.607843%,46.666667%);fill-opacity:1;" d="M 4.722656 16.570312 L 3.921875 16.570312 L 3.921875 14.578125 C 3.921875 14.382812 3.875 13.980469 3.347656 13.980469 C 3.011719 13.980469 2.753906 14.222656 2.753906 14.578125 L 2.753906 16.570312 L 1.953125 16.570312 L 1.953125 14.578125 C 1.953125 14.382812 1.90625 13.980469 1.378906 13.980469 C 1.042969 13.980469 0.800781 14.222656 0.800781 14.578125 L 0.800781 16.570312 L 0.00390625 16.570312 L 0.00390625 14.59375 C 0.00390625 13.769531 0.53125 13.136719 1.363281 13.136719 C 1.777344 13.136719 2.113281 13.300781 2.355469 13.605469 C 2.59375 13.316406 2.929688 13.136719 3.347656 13.136719 C 4.210938 13.136719 4.707031 13.734375 4.707031 14.59375 Z M 4.722656 16.570312 "/>
<path style=" stroke:none;fill-rule:nonzero;fill:rgb(17.647059%,19.607843%,46.666667%);fill-opacity:1;" d="M 19.648438 5.332031 C 19.648438 8.277344 16.6875 10.660156 12.03125 10.660156 C 7.394531 10.660156 4.417969 8.277344 4.417969 5.332031 C 4.417969 5.316406 4.417969 5.101562 4.417969 5.039062 C 4.417969 2.269531 7.824219 0 12.03125 0 C 16.238281 0 19.648438 2.269531 19.648438 5.039062 C 19.648438 5.183594 19.648438 5.234375 19.648438 5.332031 Z M 19.648438 5.332031 "/>
<path style=" stroke:none;fill-rule:nonzero;fill:rgb(100%,90.196078%,0%);fill-opacity:1;" d="M 19.375 5.039062 C 19.375 2.425781 16.101562 0.308594 12.066406 0.308594 C 8.027344 0.308594 4.753906 2.425781 4.753906 5.039062 C 4.753906 7.652344 8.027344 9.769531 12.066406 9.769531 C 16.101562 9.769531 19.375 7.652344 19.375 5.039062 Z M 19.375 5.039062 "/>
<path style=" stroke:none;fill-rule:nonzero;fill:rgb(100%,100%,100%);fill-opacity:1;" d="M 10.257812 2.851562 C 10.769531 2.335938 11.234375 1.863281 12.335938 1.832031 C 13.089844 1.816406 13.839844 2.171875 13.839844 2.171875 C 15.230469 2.851562 16.65625 2.59375 17.808594 2.105469 C 18.640625 2.789062 19.183594 3.628906 19.328125 4.539062 C 17.632812 4.925781 16.382812 5.460938 16.113281 5.589844 C 15.757812 5.28125 13.746094 3.5 13.25 3.128906 C 12.976562 2.933594 12.816406 2.835938 12.671875 2.789062 C 12.546875 2.753906 12.355469 2.707031 12.046875 2.804688 C 11.761719 2.882812 11.472656 3.128906 11.183594 3.355469 C 10.929688 3.5625 10.640625 3.792969 10.433594 3.839844 C 10.066406 3.921875 9.714844 3.839844 9.601562 3.695312 C 9.554688 3.628906 9.632812 3.546875 9.632812 3.546875 Z M 10.257812 2.851562 "/>
<path style=" stroke:none;fill-rule:nonzero;fill:rgb(100%,100%,100%);fill-opacity:1;" d="M 16.191406 6.140625 C 16.191406 6.285156 16.113281 6.398438 15.984375 6.480469 C 15.632812 6.707031 15.359375 6.496094 15.34375 6.496094 C 15.34375 6.496094 14.542969 5.75 14.242188 5.492188 C 14.191406 5.460938 14.128906 5.410156 14.097656 5.445312 C 14.066406 5.492188 14.160156 5.574219 14.160156 5.574219 L 15.089844 6.527344 C 15.089844 6.527344 15.214844 6.660156 15.230469 6.820312 C 15.25 6.949219 15.199219 7.113281 14.992188 7.257812 C 14.65625 7.484375 14.398438 7.324219 14.335938 7.273438 C 14.046875 6.980469 13.746094 6.660156 13.519531 6.480469 C 13.472656 6.449219 13.40625 6.398438 13.375 6.429688 C 13.34375 6.464844 13.441406 6.5625 13.441406 6.5625 L 14.128906 7.339844 C 14.128906 7.339844 14.289062 7.535156 14.144531 7.726562 C 14.128906 7.757812 14.082031 7.792969 14.046875 7.824219 C 13.90625 7.9375 13.695312 7.953125 13.582031 7.9375 C 13.457031 7.90625 13.425781 7.855469 13.425781 7.855469 C 13.425781 7.855469 13.074219 7.484375 12.769531 7.226562 C 12.722656 7.191406 12.65625 7.144531 12.625 7.175781 C 12.59375 7.207031 12.6875 7.304688 12.6875 7.304688 L 13.28125 7.96875 C 13.3125 8.003906 13.28125 8.035156 13.265625 8.066406 C 13.230469 8.117188 13.152344 8.179688 12.929688 8.214844 C 12.640625 8.246094 12.335938 8.085938 12.207031 8.019531 C 12.273438 7.90625 12.304688 7.777344 12.304688 7.628906 C 12.304688 7.160156 11.9375 6.789062 11.472656 6.789062 C 11.441406 6.789062 11.425781 6.789062 11.394531 6.789062 C 11.425781 6.496094 11.363281 6.109375 10.976562 5.945312 C 10.847656 5.898438 10.738281 5.863281 10.625 5.863281 C 10.511719 5.863281 10.417969 5.898438 10.335938 5.929688 C 10.273438 5.78125 10.160156 5.621094 9.921875 5.539062 C 9.808594 5.507812 9.714844 5.492188 9.617188 5.492188 C 9.410156 5.492188 9.234375 5.574219 9.121094 5.671875 C 8.992188 5.492188 8.785156 5.378906 8.5625 5.378906 C 8.355469 5.378906 8.179688 5.460938 8.046875 5.605469 C 7.921875 5.507812 7.28125 5.023438 5.203125 4.554688 C 5.121094 4.539062 4.898438 4.472656 4.769531 4.4375 C 4.945312 3.484375 5.570312 2.625 6.480469 1.929688 C 7.25 2.285156 7.761719 2.449219 8.355469 2.609375 C 8.449219 2.640625 8.960938 2.722656 9.058594 2.722656 C 9.28125 2.722656 9.503906 2.65625 9.746094 2.59375 C 9.9375 2.542969 10.128906 2.496094 10.335938 2.464844 C 10.257812 2.542969 10.195312 2.609375 10.113281 2.691406 L 9.472656 3.402344 C 9.457031 3.417969 9.328125 3.546875 9.394531 3.710938 C 9.425781 3.777344 9.472656 3.839844 9.554688 3.890625 C 9.730469 4.019531 10.128906 4.117188 10.464844 4.035156 C 10.722656 3.988281 10.992188 3.757812 11.296875 3.515625 C 11.585938 3.289062 11.921875 3.0625 12.160156 2.996094 C 12.257812 2.964844 12.382812 2.949219 12.480469 2.964844 C 12.65625 2.996094 12.832031 3.0625 13.136719 3.289062 C 13.664062 3.695312 16.015625 5.765625 16.03125 5.78125 C 16.03125 5.78125 16.207031 5.929688 16.191406 6.140625 Z M 16.191406 6.140625 "/>
<path style=" stroke:none;fill-rule:nonzero;fill:rgb(100%,100%,100%);fill-opacity:1;" d="M 12.144531 7.648438 C 12.144531 8.003906 11.855469 8.292969 11.503906 8.292969 C 11.167969 8.292969 10.882812 8.019531 10.863281 7.679688 C 10.863281 7.613281 10.847656 7.597656 10.800781 7.648438 C 10.707031 7.742188 10.546875 7.855469 10.273438 7.742188 C 9.90625 7.597656 9.890625 7.339844 9.90625 7.226562 C 9.90625 7.191406 9.90625 7.175781 9.855469 7.207031 C 9.714844 7.304688 9.554688 7.371094 9.363281 7.289062 C 8.882812 7.113281 8.929688 6.644531 8.945312 6.511719 C 8.945312 6.496094 8.945312 6.496094 8.945312 6.496094 C 8.847656 6.59375 8.738281 6.644531 8.59375 6.644531 C 8.304688 6.644531 8.082031 6.414062 8.082031 6.125 C 8.082031 5.832031 8.304688 5.605469 8.59375 5.605469 C 8.863281 5.605469 9.074219 5.800781 9.105469 6.058594 C 9.1875 5.945312 9.457031 5.621094 9.90625 5.765625 C 10.222656 5.863281 10.273438 6.15625 10.273438 6.253906 C 10.273438 6.269531 10.289062 6.269531 10.304688 6.253906 C 10.371094 6.171875 10.59375 5.996094 10.945312 6.15625 C 11.40625 6.367188 11.214844 6.949219 11.199219 6.980469 C 11.183594 7.015625 11.167969 7.078125 11.183594 7.078125 C 11.199219 7.078125 11.363281 7 11.503906 7 C 11.855469 7 12.144531 7.289062 12.144531 7.648438 Z M 12.144531 7.648438 "/>
<path style=" stroke:none;fill-rule:evenodd;fill:rgb(17.647059%,19.607843%,46.666667%);fill-opacity:1;" d="M 19.3125 4.503906 C 19.34375 4.617188 19.359375 4.714844 19.359375 4.828125 C 17.984375 5.152344 16.832031 5.574219 16.320312 5.800781 C 16.382812 5.929688 16.433594 6.074219 16.414062 6.222656 C 16.398438 6.429688 16.289062 6.609375 16.097656 6.738281 C 15.953125 6.835938 15.792969 6.886719 15.632812 6.886719 C 15.582031 6.886719 15.519531 6.886719 15.472656 6.871094 C 15.472656 7.03125 15.425781 7.304688 15.121094 7.5 C 14.960938 7.613281 14.785156 7.664062 14.625 7.664062 C 14.574219 7.664062 14.511719 7.664062 14.464844 7.648438 C 14.464844 7.792969 14.351562 7.953125 14.191406 8.066406 C 14.03125 8.199219 13.871094 8.246094 13.714844 8.246094 C 13.617188 8.246094 13.539062 8.230469 13.472656 8.214844 C 13.457031 8.230469 13.457031 8.246094 13.441406 8.261719 C 13.375 8.34375 13.25 8.472656 12.945312 8.503906 C 12.914062 8.503906 12.878906 8.503906 12.832031 8.503906 C 12.53125 8.503906 12.242188 8.359375 12.097656 8.277344 C 11.9375 8.457031 11.714844 8.554688 11.472656 8.554688 C 11.121094 8.554688 10.800781 8.328125 10.671875 8.003906 C 10.609375 8.035156 10.53125 8.050781 10.449219 8.050781 C 10.355469 8.050781 10.257812 8.035156 10.160156 7.984375 C 9.871094 7.871094 9.746094 7.695312 9.695312 7.550781 C 9.632812 7.566406 9.570312 7.566406 9.519531 7.566406 C 9.441406 7.566406 9.363281 7.550781 9.265625 7.515625 C 8.960938 7.40625 8.769531 7.175781 8.707031 6.871094 C 8.65625 6.886719 8.609375 6.886719 8.5625 6.886719 C 8.160156 6.886719 7.824219 6.5625 7.824219 6.140625 C 7.824219 6.042969 7.839844 5.945312 7.871094 5.847656 C 7.761719 5.765625 7.105469 5.296875 5.136719 4.859375 C 5.058594 4.84375 4.707031 4.761719 4.707031 4.761719 C 4.722656 4.652344 4.738281 4.539062 4.753906 4.4375 C 4.882812 4.488281 5.089844 4.554688 5.1875 4.570312 C 7.121094 5.023438 7.839844 5.476562 8.019531 5.621094 C 8.144531 5.492188 8.335938 5.410156 8.53125 5.410156 C 8.753906 5.410156 8.960938 5.507812 9.105469 5.6875 C 9.25 5.574219 9.410156 5.523438 9.585938 5.523438 C 9.695312 5.523438 9.792969 5.539062 9.90625 5.574219 C 10.097656 5.636719 10.242188 5.765625 10.335938 5.945312 C 10.433594 5.914062 10.511719 5.898438 10.609375 5.898438 C 10.738281 5.898438 10.847656 5.929688 10.976562 5.980469 C 11.40625 6.15625 11.441406 6.578125 11.425781 6.804688 C 11.441406 6.804688 11.441406 6.804688 11.457031 6.804688 C 11.9375 6.804688 12.320312 7.191406 12.320312 7.679688 C 12.320312 7.808594 12.289062 7.9375 12.242188 8.050781 C 12.367188 8.117188 12.59375 8.230469 12.816406 8.230469 C 12.847656 8.230469 12.863281 8.230469 12.898438 8.230469 C 13.105469 8.199219 13.183594 8.132812 13.199219 8.101562 C 13.214844 8.066406 13.214844 8.050781 13.214844 8.050781 L 12.625 7.40625 C 12.59375 7.371094 12.511719 7.273438 12.5625 7.207031 C 12.578125 7.191406 12.609375 7.175781 12.625 7.175781 C 12.671875 7.175781 12.722656 7.207031 12.753906 7.242188 C 13.039062 7.484375 13.390625 7.824219 13.425781 7.871094 C 13.457031 7.90625 13.503906 7.921875 13.566406 7.9375 C 13.601562 7.9375 13.632812 7.9375 13.664062 7.9375 C 13.730469 7.9375 13.890625 7.921875 14 7.824219 C 14.015625 7.808594 14.082031 7.742188 14.097656 7.726562 C 14.222656 7.582031 14.082031 7.40625 14.082031 7.40625 L 13.390625 6.625 C 13.390625 6.625 13.359375 6.609375 13.34375 6.578125 C 13.296875 6.496094 13.3125 6.449219 13.328125 6.429688 C 13.34375 6.398438 13.375 6.398438 13.390625 6.398438 C 13.441406 6.398438 13.488281 6.449219 13.539062 6.480469 C 13.730469 6.625 13.984375 6.886719 14.222656 7.128906 L 14.367188 7.257812 C 14.398438 7.273438 14.496094 7.339844 14.640625 7.339844 C 14.753906 7.339844 14.863281 7.304688 14.976562 7.226562 C 15.136719 7.128906 15.199219 7 15.199219 6.835938 C 15.183594 6.691406 15.074219 6.578125 15.074219 6.578125 L 14.128906 5.621094 C 14.066406 5.574219 14.015625 5.492188 14.066406 5.429688 C 14.082031 5.410156 14.097656 5.394531 14.128906 5.394531 C 14.175781 5.394531 14.222656 5.429688 14.273438 5.476562 C 14.558594 5.734375 15.375 6.480469 15.375 6.480469 C 15.375 6.480469 15.488281 6.5625 15.648438 6.5625 C 15.742188 6.5625 15.855469 6.527344 15.953125 6.464844 C 16.066406 6.382812 16.144531 6.269531 16.144531 6.15625 C 16.144531 5.929688 16 5.800781 16 5.800781 C 15.984375 5.78125 13.632812 3.710938 13.105469 3.304688 C 12.800781 3.078125 12.640625 3.015625 12.464844 2.996094 C 12.449219 2.996094 12.417969 2.996094 12.398438 2.996094 C 12.320312 2.996094 12.242188 3.015625 12.160156 3.03125 C 11.90625 3.113281 11.570312 3.355469 11.328125 3.546875 C 11.039062 3.792969 10.753906 4.019531 10.480469 4.082031 C 10.402344 4.097656 10.304688 4.117188 10.207031 4.117188 C 9.953125 4.117188 9.679688 4.035156 9.519531 3.9375 C 9.441406 3.875 9.378906 3.808594 9.34375 3.742188 C 9.28125 3.582031 9.394531 3.433594 9.441406 3.386719 L 10.082031 2.675781 C 10.128906 2.625 10.160156 2.59375 10.207031 2.542969 C 10.066406 2.578125 9.921875 2.625 9.777344 2.65625 C 9.539062 2.722656 9.3125 2.789062 9.074219 2.789062 C 8.960938 2.789062 8.847656 2.769531 8.753906 2.769531 C 8.402344 2.738281 7.265625 2.449219 6.335938 2.058594 C 6.433594 1.992188 6.511719 1.929688 6.609375 1.863281 C 7.488281 2.21875 8.609375 2.496094 8.832031 2.496094 C 8.847656 2.496094 8.992188 2.496094 9.074219 2.496094 C 9.265625 2.496094 9.472656 2.449219 9.695312 2.382812 C 9.953125 2.316406 10.242188 2.21875 10.578125 2.21875 C 10.914062 1.929688 11.425781 1.605469 12.335938 1.589844 C 12.355469 1.589844 12.382812 1.589844 12.398438 1.589844 C 13.183594 1.589844 13.921875 1.945312 13.953125 1.960938 C 14.542969 2.253906 15.152344 2.398438 15.757812 2.398438 C 16.367188 2.398438 16.976562 2.269531 17.632812 1.976562 C 17.710938 2.042969 17.808594 2.121094 17.886719 2.1875 C 17.152344 2.527344 16.449219 2.707031 15.757812 2.707031 C 15.105469 2.707031 14.464844 2.542969 13.824219 2.234375 C 13.746094 2.203125 13.074219 1.898438 12.398438 1.898438 C 12.382812 1.898438 12.367188 1.898438 12.355469 1.898438 C 11.265625 1.929688 10.800781 2.398438 10.304688 2.898438 L 9.664062 3.597656 C 9.632812 3.628906 9.617188 3.660156 9.632812 3.675781 C 9.714844 3.777344 9.921875 3.839844 10.144531 3.839844 C 10.242188 3.839844 10.320312 3.824219 10.417969 3.808594 C 10.625 3.757812 10.898438 3.546875 11.152344 3.339844 L 11.167969 3.320312 C 11.457031 3.097656 11.746094 2.867188 12.03125 2.769531 C 12.160156 2.722656 12.289062 2.707031 12.398438 2.707031 C 12.53125 2.707031 12.625 2.738281 12.6875 2.753906 C 12.847656 2.789062 13.023438 2.898438 13.28125 3.097656 C 13.746094 3.433594 15.40625 4.910156 16.128906 5.539062 C 16.433594 5.394531 17.664062 4.859375 19.3125 4.503906 Z M 12.082031 7.628906 C 12.082031 7.304688 11.808594 7.03125 11.488281 7.03125 C 11.40625 7.03125 11.328125 7.0625 11.265625 7.078125 C 11.234375 7.09375 11.199219 7.09375 11.183594 7.09375 L 11.152344 7.09375 C 11.105469 7.0625 11.121094 7.03125 11.152344 6.933594 C 11.152344 6.917969 11.34375 6.367188 10.914062 6.171875 C 10.816406 6.125 10.738281 6.109375 10.65625 6.109375 C 10.480469 6.109375 10.371094 6.207031 10.320312 6.253906 C 10.320312 6.269531 10.289062 6.285156 10.273438 6.285156 C 10.273438 6.285156 10.222656 6.285156 10.222656 6.222656 C 10.222656 6.125 10.179688 5.863281 9.90625 5.78125 C 9.824219 5.765625 9.761719 5.75 9.695312 5.75 C 9.34375 5.734375 9.152344 6.027344 9.152344 6.042969 L 9.089844 6.15625 L 9.074219 6.027344 C 9.039062 5.800781 8.832031 5.621094 8.609375 5.621094 C 8.355469 5.621094 8.144531 5.832031 8.144531 6.09375 C 8.144531 6.351562 8.355469 6.5625 8.609375 6.5625 C 8.722656 6.5625 8.832031 6.511719 8.929688 6.429688 L 8.960938 6.398438 L 8.992188 6.429688 C 9.007812 6.449219 9.007812 6.464844 9.007812 6.496094 C 8.976562 6.625 8.945312 7.046875 9.394531 7.226562 C 9.441406 7.242188 9.503906 7.257812 9.554688 7.257812 C 9.648438 7.257812 9.746094 7.226562 9.839844 7.160156 C 9.871094 7.128906 9.890625 7.128906 9.90625 7.128906 L 9.921875 7.128906 L 9.9375 7.144531 C 9.953125 7.160156 9.953125 7.175781 9.953125 7.207031 C 9.9375 7.304688 9.953125 7.535156 10.289062 7.679688 C 10.351562 7.710938 10.417969 7.726562 10.480469 7.726562 C 10.609375 7.726562 10.707031 7.664062 10.769531 7.597656 C 10.800781 7.582031 10.816406 7.566406 10.847656 7.566406 C 10.914062 7.566406 10.914062 7.628906 10.914062 7.664062 C 10.929688 7.984375 11.183594 8.246094 11.503906 8.246094 C 11.824219 8.246094 12.097656 7.984375 12.082031 7.628906 Z M 12.082031 7.628906 "/>
</g>
</svg>
