<?xml version="1.0" encoding="UTF-8"?>
<svg xmlns="http://www.w3.org/2000/svg" xmlns:xlink="http://www.w3.org/1999/xlink" width="24px" height="px" viewBox="0 0 24 17" version="1.1">
<g id="surface1">
<path style=" stroke:none;fill-rule:nonzero;fill:rgb(17.647059%,19.607843%,46.666667%);fill-opacity:1;" d="M 23.988281 8.5 C 23.988281 13.199219 19.328125 16.996094 11.996094 16.996094 C 4.6875 16.996094 0 13.199219 0 8.5 C 0 8.472656 0 8.136719 0 8.035156 C 0 3.617188 5.367188 0.00390625 11.996094 0.00390625 C 18.621094 0.00390625 23.988281 3.617188 23.988281 8.035156 C 23.988281 8.269531 23.988281 8.34375 23.988281 8.5 Z M 23.988281 8.5 "/>
<path style=" stroke:none;fill-rule:nonzero;fill:rgb(100%,90.196078%,0%);fill-opacity:1;" d="M 23.558594 8.035156 C 23.558594 3.871094 18.40625 0.496094 12.046875 0.496094 C 5.6875 0.496094 0.53125 3.871094 0.53125 8.035156 C 0.53125 12.199219 5.6875 15.574219 12.046875 15.574219 C 18.40625 15.574219 23.558594 12.199219 23.558594 8.035156 Z M 23.558594 8.035156 "/>
<path style=" stroke:none;fill-rule:nonzero;fill:rgb(100%,100%,100%);fill-opacity:1;" d="M 9.199219 4.546875 C 10.003906 3.722656 10.734375 2.972656 12.472656 2.921875 C 13.65625 2.894531 14.84375 3.464844 14.84375 3.464844 C 17.035156 4.546875 19.277344 4.132812 21.089844 3.359375 C 22.402344 4.445312 23.257812 5.789062 23.484375 7.234375 C 20.8125 7.855469 18.847656 8.707031 18.417969 8.914062 C 17.867188 8.421875 14.691406 5.582031 13.910156 4.988281 C 13.480469 4.675781 13.230469 4.523438 13.003906 4.445312 C 12.800781 4.394531 12.5 4.316406 12.019531 4.472656 C 11.566406 4.597656 11.113281 4.988281 10.660156 5.347656 C 10.257812 5.683594 9.800781 6.046875 9.476562 6.125 C 8.894531 6.253906 8.34375 6.125 8.164062 5.890625 C 8.089844 5.789062 8.214844 5.660156 8.214844 5.660156 Z M 9.199219 4.546875 "/>
<path style=" stroke:none;fill-rule:nonzero;fill:rgb(100%,100%,100%);fill-opacity:1;" d="M 18.546875 9.792969 C 18.546875 10.023438 18.417969 10.203125 18.21875 10.335938 C 17.664062 10.695312 17.238281 10.359375 17.210938 10.359375 C 17.210938 10.359375 15.953125 9.171875 15.472656 8.757812 C 15.394531 8.707031 15.296875 8.628906 15.246094 8.679688 C 15.195312 8.757812 15.347656 8.886719 15.347656 8.886719 L 16.808594 10.410156 C 16.808594 10.410156 17.011719 10.617188 17.035156 10.875 C 17.058594 11.082031 16.984375 11.339844 16.65625 11.574219 C 16.128906 11.933594 15.726562 11.675781 15.621094 11.597656 C 15.167969 11.132812 14.691406 10.617188 14.335938 10.335938 C 14.261719 10.28125 14.160156 10.203125 14.109375 10.257812 C 14.0625 10.308594 14.214844 10.460938 14.214844 10.460938 L 15.296875 11.703125 C 15.296875 11.703125 15.546875 12.011719 15.320312 12.324219 C 15.296875 12.375 15.21875 12.425781 15.167969 12.476562 C 14.941406 12.65625 14.617188 12.683594 14.441406 12.65625 C 14.238281 12.605469 14.1875 12.527344 14.1875 12.527344 C 14.1875 12.527344 13.632812 11.933594 13.15625 11.519531 C 13.078125 11.46875 12.976562 11.394531 12.929688 11.445312 C 12.878906 11.496094 13.027344 11.652344 13.027344 11.652344 L 13.960938 12.710938 C 14.011719 12.761719 13.960938 12.8125 13.933594 12.863281 C 13.882812 12.941406 13.757812 13.042969 13.40625 13.097656 C 12.953125 13.148438 12.472656 12.890625 12.273438 12.789062 C 12.371094 12.605469 12.421875 12.398438 12.421875 12.167969 C 12.421875 11.417969 11.84375 10.824219 11.113281 10.824219 C 11.0625 10.824219 11.039062 10.824219 10.988281 10.824219 C 11.039062 10.359375 10.9375 9.738281 10.332031 9.480469 C 10.128906 9.402344 9.953125 9.351562 9.777344 9.351562 C 9.601562 9.351562 9.449219 9.402344 9.324219 9.457031 C 9.222656 9.222656 9.046875 8.964844 8.667969 8.835938 C 8.492188 8.785156 8.34375 8.757812 8.191406 8.757812 C 7.863281 8.757812 7.585938 8.886719 7.410156 9.042969 C 7.207031 8.757812 6.878906 8.578125 6.527344 8.578125 C 6.199219 8.578125 5.921875 8.707031 5.722656 8.9375 C 5.519531 8.785156 4.511719 8.007812 1.238281 7.261719 C 1.109375 7.234375 0.757812 7.128906 0.554688 7.078125 C 0.832031 5.554688 1.816406 4.1875 3.25 3.074219 C 4.460938 3.644531 5.265625 3.902344 6.199219 4.160156 C 6.351562 4.210938 7.15625 4.34375 7.308594 4.34375 C 7.660156 4.34375 8.015625 4.238281 8.390625 4.132812 C 8.695312 4.058594 8.996094 3.980469 9.324219 3.929688 C 9.199219 4.058594 9.097656 4.160156 8.972656 4.289062 L 7.964844 5.425781 C 7.9375 5.453125 7.738281 5.660156 7.835938 5.917969 C 7.886719 6.019531 7.964844 6.125 8.089844 6.199219 C 8.367188 6.410156 8.996094 6.5625 9.527344 6.433594 C 9.929688 6.355469 10.355469 5.996094 10.835938 5.605469 C 11.289062 5.246094 11.820312 4.886719 12.195312 4.78125 C 12.347656 4.730469 12.550781 4.703125 12.699219 4.730469 C 12.976562 4.78125 13.253906 4.886719 13.734375 5.246094 C 14.566406 5.890625 18.269531 9.195312 18.292969 9.222656 C 18.292969 9.222656 18.570312 9.457031 18.546875 9.792969 Z M 18.546875 9.792969 "/>
<path style=" stroke:none;fill-rule:nonzero;fill:rgb(100%,100%,100%);fill-opacity:1;" d="M 12.171875 12.191406 C 12.171875 12.761719 11.71875 13.226562 11.164062 13.226562 C 10.632812 13.226562 10.179688 12.789062 10.15625 12.246094 C 10.15625 12.140625 10.128906 12.113281 10.054688 12.191406 C 9.902344 12.347656 9.652344 12.527344 9.222656 12.347656 C 8.644531 12.113281 8.617188 11.703125 8.644531 11.519531 C 8.644531 11.46875 8.644531 11.445312 8.570312 11.496094 C 8.34375 11.652344 8.089844 11.753906 7.785156 11.625 C 7.03125 11.339844 7.105469 10.589844 7.132812 10.386719 C 7.132812 10.359375 7.132812 10.359375 7.132812 10.359375 C 6.980469 10.515625 6.804688 10.589844 6.578125 10.589844 C 6.125 10.589844 5.773438 10.230469 5.773438 9.765625 C 5.773438 9.300781 6.125 8.9375 6.578125 8.9375 C 7.007812 8.9375 7.332031 9.25 7.382812 9.660156 C 7.511719 9.480469 7.9375 8.964844 8.644531 9.195312 C 9.148438 9.351562 9.222656 9.816406 9.222656 9.972656 C 9.222656 9.996094 9.25 9.996094 9.273438 9.972656 C 9.375 9.84375 9.726562 9.558594 10.28125 9.816406 C 11.011719 10.152344 10.710938 11.082031 10.683594 11.132812 C 10.660156 11.1875 10.632812 11.289062 10.660156 11.289062 C 10.683594 11.289062 10.9375 11.160156 11.164062 11.160156 C 11.71875 11.160156 12.171875 11.625 12.171875 12.191406 Z M 12.171875 12.191406 "/>
<path style=" stroke:none;fill-rule:evenodd;fill:rgb(17.647059%,19.607843%,46.666667%);fill-opacity:1;" d="M 23.460938 7.183594 C 23.511719 7.363281 23.535156 7.519531 23.535156 7.699219 C 21.367188 8.214844 19.554688 8.886719 18.75 9.25 C 18.847656 9.457031 18.925781 9.6875 18.898438 9.921875 C 18.871094 10.257812 18.695312 10.539062 18.394531 10.746094 C 18.167969 10.902344 17.917969 10.980469 17.664062 10.980469 C 17.589844 10.980469 17.488281 10.980469 17.414062 10.953125 C 17.414062 11.210938 17.335938 11.652344 16.859375 11.960938 C 16.605469 12.140625 16.328125 12.21875 16.078125 12.21875 C 16 12.21875 15.902344 12.21875 15.824219 12.191406 C 15.824219 12.425781 15.648438 12.683594 15.394531 12.863281 C 15.144531 13.070312 14.894531 13.148438 14.640625 13.148438 C 14.488281 13.148438 14.363281 13.121094 14.261719 13.097656 C 14.238281 13.121094 14.238281 13.148438 14.214844 13.175781 C 14.109375 13.304688 13.910156 13.507812 13.429688 13.5625 C 13.382812 13.5625 13.332031 13.5625 13.253906 13.5625 C 12.777344 13.5625 12.324219 13.332031 12.097656 13.199219 C 11.84375 13.484375 11.492188 13.640625 11.113281 13.640625 C 10.558594 13.640625 10.054688 13.277344 9.855469 12.761719 C 9.753906 12.8125 9.625 12.839844 9.5 12.839844 C 9.347656 12.839844 9.199219 12.8125 9.046875 12.734375 C 8.59375 12.554688 8.390625 12.269531 8.316406 12.039062 C 8.214844 12.0625 8.113281 12.0625 8.039062 12.0625 C 7.914062 12.0625 7.785156 12.039062 7.636719 11.984375 C 7.15625 11.804688 6.855469 11.445312 6.753906 10.953125 C 6.679688 10.980469 6.601562 10.980469 6.527344 10.980469 C 5.898438 10.980469 5.367188 10.460938 5.367188 9.792969 C 5.367188 9.636719 5.394531 9.480469 5.441406 9.328125 C 5.265625 9.195312 4.234375 8.449219 1.136719 7.75 C 1.011719 7.726562 0.453125 7.59375 0.453125 7.59375 C 0.480469 7.414062 0.503906 7.234375 0.53125 7.078125 C 0.730469 7.15625 1.058594 7.261719 1.210938 7.285156 C 4.261719 8.007812 5.394531 8.730469 5.671875 8.964844 C 5.871094 8.757812 6.175781 8.628906 6.476562 8.628906 C 6.832031 8.628906 7.15625 8.785156 7.382812 9.066406 C 7.609375 8.886719 7.863281 8.808594 8.140625 8.808594 C 8.316406 8.808594 8.46875 8.835938 8.644531 8.886719 C 8.945312 8.992188 9.171875 9.195312 9.324219 9.480469 C 9.476562 9.429688 9.601562 9.402344 9.753906 9.402344 C 9.953125 9.402344 10.128906 9.457031 10.332031 9.53125 C 11.011719 9.816406 11.0625 10.488281 11.039062 10.851562 C 11.0625 10.851562 11.0625 10.851562 11.085938 10.851562 C 11.84375 10.851562 12.449219 11.46875 12.449219 12.246094 C 12.449219 12.453125 12.398438 12.65625 12.324219 12.839844 C 12.523438 12.941406 12.878906 13.121094 13.230469 13.121094 C 13.28125 13.121094 13.304688 13.121094 13.355469 13.121094 C 13.683594 13.070312 13.808594 12.96875 13.835938 12.917969 C 13.859375 12.863281 13.859375 12.839844 13.859375 12.839844 L 12.929688 11.804688 C 12.878906 11.753906 12.75 11.597656 12.824219 11.496094 C 12.851562 11.46875 12.902344 11.445312 12.929688 11.445312 C 13.003906 11.445312 13.078125 11.496094 13.128906 11.546875 C 13.582031 11.933594 14.136719 12.476562 14.1875 12.554688 C 14.238281 12.605469 14.3125 12.632812 14.414062 12.65625 C 14.464844 12.65625 14.515625 12.65625 14.566406 12.65625 C 14.667969 12.65625 14.917969 12.632812 15.09375 12.476562 C 15.121094 12.453125 15.21875 12.347656 15.246094 12.324219 C 15.445312 12.089844 15.21875 11.804688 15.21875 11.804688 L 14.136719 10.566406 C 14.136719 10.566406 14.085938 10.539062 14.0625 10.488281 C 13.984375 10.359375 14.011719 10.28125 14.035156 10.257812 C 14.0625 10.203125 14.109375 10.203125 14.136719 10.203125 C 14.214844 10.203125 14.289062 10.28125 14.363281 10.335938 C 14.667969 10.566406 15.070312 10.980469 15.445312 11.367188 L 15.671875 11.574219 C 15.726562 11.597656 15.875 11.703125 16.101562 11.703125 C 16.277344 11.703125 16.453125 11.652344 16.632812 11.519531 C 16.882812 11.367188 16.984375 11.160156 16.984375 10.902344 C 16.957031 10.667969 16.78125 10.488281 16.78125 10.488281 L 15.296875 8.964844 C 15.195312 8.886719 15.121094 8.757812 15.195312 8.65625 C 15.21875 8.628906 15.246094 8.601562 15.296875 8.601562 C 15.371094 8.601562 15.445312 8.65625 15.523438 8.730469 C 15.976562 9.144531 17.261719 10.335938 17.261719 10.335938 C 17.261719 10.335938 17.4375 10.460938 17.691406 10.460938 C 17.839844 10.460938 18.015625 10.410156 18.167969 10.308594 C 18.34375 10.179688 18.46875 9.996094 18.46875 9.816406 C 18.46875 9.457031 18.242188 9.25 18.242188 9.25 C 18.21875 9.222656 14.515625 5.917969 13.683594 5.273438 C 13.203125 4.910156 12.953125 4.808594 12.675781 4.78125 C 12.648438 4.78125 12.597656 4.78125 12.574219 4.78125 C 12.449219 4.78125 12.324219 4.808594 12.195312 4.832031 C 11.792969 4.960938 11.265625 5.347656 10.886719 5.660156 C 10.433594 6.046875 9.980469 6.410156 9.550781 6.511719 C 9.425781 6.535156 9.273438 6.5625 9.121094 6.5625 C 8.71875 6.5625 8.289062 6.433594 8.039062 6.277344 C 7.914062 6.175781 7.8125 6.070312 7.761719 5.96875 C 7.660156 5.710938 7.835938 5.476562 7.914062 5.402344 L 8.921875 4.265625 C 8.996094 4.1875 9.046875 4.132812 9.121094 4.058594 C 8.894531 4.109375 8.667969 4.1875 8.441406 4.238281 C 8.0625 4.34375 7.710938 4.445312 7.332031 4.445312 C 7.15625 4.445312 6.980469 4.417969 6.832031 4.417969 C 6.273438 4.367188 4.488281 3.902344 3.023438 3.28125 C 3.175781 3.179688 3.300781 3.074219 3.453125 2.972656 C 4.839844 3.539062 6.601562 3.980469 6.957031 3.980469 C 6.980469 3.980469 7.207031 3.980469 7.332031 3.980469 C 7.636719 3.980469 7.964844 3.902344 8.316406 3.800781 C 8.71875 3.695312 9.171875 3.539062 9.703125 3.539062 C 10.230469 3.074219 11.039062 2.558594 12.472656 2.535156 C 12.5 2.535156 12.550781 2.535156 12.574219 2.535156 C 13.808594 2.535156 14.96875 3.101562 15.019531 3.128906 C 15.953125 3.59375 16.90625 3.824219 17.867188 3.824219 C 18.824219 3.824219 19.78125 3.617188 20.8125 3.152344 C 20.941406 3.257812 21.089844 3.386719 21.214844 3.488281 C 20.058594 4.03125 18.949219 4.316406 17.867188 4.316406 C 16.832031 4.316406 15.824219 4.058594 14.816406 3.566406 C 14.691406 3.515625 13.632812 3.023438 12.574219 3.023438 C 12.550781 3.023438 12.523438 3.023438 12.5 3.023438 C 10.785156 3.074219 10.054688 3.824219 9.273438 4.625 L 8.265625 5.738281 C 8.214844 5.789062 8.191406 5.839844 8.214844 5.867188 C 8.34375 6.019531 8.667969 6.125 9.023438 6.125 C 9.171875 6.125 9.300781 6.097656 9.449219 6.070312 C 9.777344 5.996094 10.207031 5.660156 10.609375 5.324219 L 10.632812 5.296875 C 11.085938 4.9375 11.542969 4.574219 11.996094 4.417969 C 12.195312 4.34375 12.398438 4.316406 12.574219 4.316406 C 12.777344 4.316406 12.929688 4.367188 13.027344 4.394531 C 13.28125 4.445312 13.558594 4.625 13.960938 4.9375 C 14.691406 5.476562 17.3125 7.828125 18.445312 8.835938 C 18.925781 8.601562 20.863281 7.75 23.460938 7.183594 Z M 12.070312 12.167969 C 12.070312 11.652344 11.644531 11.210938 11.136719 11.210938 C 11.011719 11.210938 10.886719 11.261719 10.785156 11.289062 C 10.734375 11.316406 10.683594 11.316406 10.660156 11.316406 L 10.609375 11.316406 C 10.535156 11.261719 10.558594 11.210938 10.609375 11.054688 C 10.609375 11.03125 10.910156 10.152344 10.230469 9.84375 C 10.082031 9.765625 9.953125 9.738281 9.828125 9.738281 C 9.550781 9.738281 9.375 9.894531 9.300781 9.972656 C 9.300781 9.996094 9.25 10.023438 9.222656 10.023438 C 9.222656 10.023438 9.148438 10.023438 9.148438 9.921875 C 9.148438 9.765625 9.070312 9.351562 8.644531 9.222656 C 8.519531 9.195312 8.417969 9.171875 8.316406 9.171875 C 7.761719 9.144531 7.460938 9.609375 7.460938 9.636719 L 7.359375 9.816406 L 7.332031 9.609375 C 7.285156 9.25 6.957031 8.964844 6.601562 8.964844 C 6.199219 8.964844 5.871094 9.300781 5.871094 9.714844 C 5.871094 10.125 6.199219 10.460938 6.601562 10.460938 C 6.777344 10.460938 6.957031 10.386719 7.105469 10.257812 L 7.15625 10.203125 L 7.207031 10.257812 C 7.234375 10.28125 7.234375 10.308594 7.234375 10.359375 C 7.183594 10.566406 7.132812 11.238281 7.835938 11.519531 C 7.914062 11.546875 8.015625 11.574219 8.089844 11.574219 C 8.242188 11.574219 8.390625 11.523438 8.542969 11.417969 C 8.59375 11.367188 8.617188 11.367188 8.644531 11.367188 L 8.667969 11.367188 L 8.695312 11.394531 C 8.71875 11.417969 8.71875 11.445312 8.71875 11.496094 C 8.695312 11.652344 8.71875 12.011719 9.25 12.246094 C 9.347656 12.296875 9.449219 12.324219 9.550781 12.324219 C 9.753906 12.324219 9.902344 12.21875 10.003906 12.113281 C 10.054688 12.089844 10.082031 12.0625 10.128906 12.0625 C 10.230469 12.0625 10.230469 12.167969 10.230469 12.21875 C 10.257812 12.734375 10.660156 13.148438 11.164062 13.148438 C 11.667969 13.148438 12.097656 12.734375 12.070312 12.167969 Z M 12.070312 12.167969 "/>
</g>
</svg>
